<?xml version="1.0" encoding="UTF-8" standalone="no"?><!DOCTYPE svg PUBLIC "-//W3C//DTD SVG 1.1//EN" "http://www.w3.org/Graphics/SVG/1.1/DTD/svg11.dtd"><svg width="100%" height="100%" viewBox="0 0 6918 913" version="1.1" xmlns="http://www.w3.org/2000/svg" xmlns:xlink="http://www.w3.org/1999/xlink" xml:space="preserve" xmlns:serif="http://www.serif.com/" style="fill-rule:evenodd;clip-rule:evenodd;stroke-linejoin:round;stroke-miterlimit:1.41421;"><rect id="Artboard1" x="0" y="0" width="6917.9" height="912.25" style="fill:none;"/><g><path d="M143.983,160.665l0,592.887l118.324,0l0,-236.859l73.654,0c98.139,0 177.586,-79.445 177.586,-177.59c0,-98.147 -79.447,-178.438 -177.586,-178.438l-191.978,0Zm118.324,237.705l0,-119.381l73.654,0c32.171,0 59.262,27.094 59.262,60.114c0,33.02 -27.091,59.267 -59.262,59.267l-73.654,0Z" style="fill:#1d1d1d;fill-rule:nonzero;"/><path d="M1038.87,753.552l-117.49,-253.763c61.697,-27.89 103.956,-89.587 103.956,-161.532c0,-98.146 -79.446,-178.438 -177.577,-178.438l-223.286,0l0,592.887l118.324,0l0,-236.858l59.253,0l110.878,237.704l125.942,0Zm-191.111,-475.409c33.012,0 59.253,27.094 59.253,60.114c0,33.02 -26.241,59.267 -59.253,59.267l-104.962,0l0,-119.381l104.962,0Z" style="fill:#1d1d1d;fill-rule:nonzero;"/><path d="M1392.52,149.668c-169.233,0 -307.018,137.783 -307.018,307.017c0,169.234 137.785,307.018 307.018,307.018c169.234,0 307.017,-137.784 307.017,-307.018c0,-169.234 -137.783,-307.017 -307.017,-307.017Zm0,121.707c102.387,0 185.31,82.923 185.31,185.31c0,102.386 -82.923,185.311 -185.31,185.311c-102.386,0 -185.311,-82.925 -185.311,-185.311c0,-102.387 82.925,-185.31 185.311,-185.31Z" style="fill:#1d1d1d;fill-rule:nonzero;"/><path d="M1925.41,160.665l-2.539,107.327l125.283,0l0,290.235l-2.54,0l0,0.846c0,20.308 -7.618,38.924 -22.009,53.309c-14.391,14.385 -33.014,22.847 -53.33,22.847c-20.316,0 -39.786,-8.462 -54.176,-22.847c-14.391,-14.385 -22.009,-33.001 -22.009,-53.309l0,-0.846l-118.324,0l0,0.846c0,107.427 87.052,194.479 194.509,194.479c106.614,0 193.666,-87.052 193.666,-194.479l0,-0.846l0.844,0l0,-397.562l-239.375,0Z" style="fill:#1d1d1d;fill-rule:nonzero;"/><path d="M2657.12,160.665l-394.941,0l0,592.887l392.403,0l0,-118.323l-274.079,0l0,-128.687l228.4,0l0,-118.323l-228.4,0l0,-109.23l276.617,0l0,-118.324Z" style="fill:#1d1d1d;fill-rule:nonzero;"/><path d="M3204.43,216.44c-52.447,-40.569 -118.429,-65.08 -189.487,-65.08c-169.185,0 -306.965,137.783 -306.965,307.017c0,169.234 137.78,307.018 306.965,307.018c74.441,0 142.961,-27.046 196.255,-70.996l-76.134,-87.096c-111.662,84.561 -295.227,17.769 -295.227,-148.926c0,-159.08 173.414,-228.413 288.46,-154.003l76.133,-87.934Z" style="fill:#1d1d1d;fill-rule:nonzero;"/><path d="M3308.59,160.665l0,118.324l164.955,0l0,474.563l118.323,0l0,-474.563l164.11,0l0,-118.324l-447.388,0Z" style="fill:#1d1d1d;fill-rule:nonzero;"/><path d="M4513.08,753.552l-117.491,-253.763c61.697,-27.89 103.956,-89.587 103.956,-161.532c0,-98.146 -79.446,-178.438 -177.577,-178.438l-223.285,0l0,592.887l118.323,0l0,-236.858l59.253,0l110.878,237.704l125.943,0Zm-191.112,-475.409c33.012,0 59.253,27.094 59.253,60.114c0,33.02 -26.241,59.267 -59.253,59.267l-104.962,0l0,-119.381l104.962,0Z" style="fill:#fc8b17;fill-rule:nonzero;"/><path d="M4996.94,160.665l-394.941,0l0,592.887l392.404,0l0,-118.323l-274.08,0l0,-128.687l228.4,0l0,-118.323l-228.4,0l0,-109.23l276.617,0l0,-118.324Z" style="fill:#fc8b17;fill-rule:nonzero;"/><path d="M5550.2,753.552l131.094,0l-279.952,-592.887l-34.677,0l-301.944,592.887l132.788,0l55.821,-109.97l245.277,0l51.593,109.97Zm-235.973,-228.294l66.816,-131.964l61.743,131.964l-128.559,0Z" style="fill:#fc8b17;fill-rule:nonzero;"/><path d="M6186.31,216.44c-52.448,-40.569 -118.43,-65.08 -189.487,-65.08c-169.185,0 -306.965,137.783 -306.965,307.017c0,169.234 137.78,307.018 306.965,307.018c74.441,0 142.961,-27.046 196.254,-70.996l-76.133,-87.096c-111.662,84.561 -295.228,17.769 -295.228,-148.926c0,-159.08 173.415,-228.413 288.46,-154.003l76.134,-87.934Z" style="fill:#fc8b17;fill-rule:nonzero;"/><path d="M6640.68,388.219l-219.201,0l0,-226.708l-118.323,0l0,592.041l118.323,0l0,-247.01l219.201,0l0,247.01l118.323,0l0,-592.041l-118.323,0l0,226.708Z" style="fill:#fc8b17;fill-rule:nonzero;"/></g></svg>